<svg width="1440" height="705" viewBox="0 0 1440 705" fill="none" xmlns="http://www.w3.org/2000/svg">
<g clip-path="url(#clip0_9_357)">
<g filter="url(#filter0_f_9_357)">
<ellipse cx="1509.27" cy="446.408" rx="664.985" ry="673.184" transform="rotate(51.5415 1509.27 446.408)" fill="url(#paint0_linear_9_357)"/>
</g>
<g filter="url(#filter1_f_9_357)">
<ellipse cx="1236.06" cy="1061.08" rx="449.681" ry="454.849" transform="rotate(180 1236.06 1061.08)" fill="#865CD0"/>
</g>
<g filter="url(#filter2_f_9_357)">
<ellipse cx="1447.09" cy="1156.61" rx="367.337" ry="371.793" transform="rotate(180 1447.09 1156.61)" fill="#FFC1DF"/>
</g>
<g filter="url(#filter3_f_9_357)">
<path d="M658.633 143.868C518.225 494.187 740.059 925.468 1375.14 1044.6C785.873 804.196 779.625 405.69 834.369 108.707L658.633 143.868Z" fill="white" fill-opacity="0.85"/>
</g>
<g filter="url(#filter4_f_9_357)">
<path d="M516.567 308.97C361.606 525.112 440.937 857.536 855.532 1045.79C492.67 782.244 555.366 508.48 642.74 314.442L516.567 308.97Z" fill="white" fill-opacity="0.85"/>
</g>
<g filter="url(#filter5_f_9_357)">
<path d="M993.118 158.907C885.229 438.383 1065.68 778.445 1570.96 866.557C1100.81 681.725 1091.81 365.491 1132.25 129.217L993.118 158.907Z" fill="url(#paint1_linear_9_357)" fill-opacity="0.7"/>
</g>
<g filter="url(#filter6_f_9_357)">
<path d="M1209.52 117.445C1165.3 413.742 1415.68 706.161 1928.01 681.744C1428.83 604.102 1845.53 205.612 1833.37 -33.7881L1209.52 117.445Z" fill="white" fill-opacity="0.8"/>
</g>
<g filter="url(#filter7_f_9_357)">
<ellipse cx="664.985" cy="673.184" rx="664.985" ry="673.184" transform="matrix(-0.621948 0.783059 0.783059 0.621948 -257.827 -493)" fill="url(#paint2_linear_9_357)"/>
</g>
<g filter="url(#filter8_f_9_357)">
<ellipse cx="449.681" cy="454.849" rx="449.681" ry="454.849" transform="matrix(1 0 0 -1 -320.739 1515.93)" fill="#865CD0"/>
</g>
<g filter="url(#filter9_f_9_357)">
<ellipse cx="367.337" cy="371.793" rx="367.337" ry="371.793" transform="matrix(1 0 0 -1 -449.423 1528.4)" fill="#FFC1DF"/>
</g>
<g filter="url(#filter10_f_9_357)">
<path d="M706.367 143.868C846.775 494.187 624.941 925.468 -10.1443 1044.6C579.127 804.196 585.375 405.69 530.631 108.707L706.367 143.868Z" fill="white" fill-opacity="0.85"/>
</g>
<g filter="url(#filter11_f_9_357)">
<path d="M848.433 308.97C1003.39 525.112 924.063 857.536 509.468 1045.79C872.33 782.244 809.634 508.48 722.26 314.442L848.433 308.97Z" fill="white" fill-opacity="0.85"/>
</g>
<g filter="url(#filter12_f_9_357)">
<path d="M371.882 158.907C479.771 438.383 299.325 778.445 -205.957 866.557C264.192 681.725 273.193 365.491 232.754 129.217L371.882 158.907Z" fill="url(#paint3_linear_9_357)" fill-opacity="0.7"/>
</g>
<g filter="url(#filter13_f_9_357)">
<path d="M155.485 117.445C199.704 413.742 -50.6832 706.161 -563.009 681.744C-63.8345 604.102 -480.532 205.612 -468.369 -33.7881L155.485 117.445Z" fill="white" fill-opacity="0.8"/>
</g>
</g>
<defs>
<filter id="filter0_f_9_357" x="482.752" y="-578.249" width="2053.04" height="2049.31" filterUnits="userSpaceOnUse" color-interpolation-filters="sRGB">
<feFlood flood-opacity="0" result="BackgroundImageFix"/>
<feBlend mode="normal" in="SourceGraphic" in2="BackgroundImageFix" result="shape"/>
<feGaussianBlur stdDeviation="178.232" result="effect1_foregroundBlur_9_357"/>
</filter>
<filter id="filter1_f_9_357" x="429.913" y="249.762" width="1612.29" height="1622.63" filterUnits="userSpaceOnUse" color-interpolation-filters="sRGB">
<feFlood flood-opacity="0" result="BackgroundImageFix"/>
<feBlend mode="normal" in="SourceGraphic" in2="BackgroundImageFix" result="shape"/>
<feGaussianBlur stdDeviation="178.232" result="effect1_foregroundBlur_9_357"/>
</filter>
<filter id="filter2_f_9_357" x="723.284" y="428.351" width="1447.6" height="1456.52" filterUnits="userSpaceOnUse" color-interpolation-filters="sRGB">
<feFlood flood-opacity="0" result="BackgroundImageFix"/>
<feBlend mode="normal" in="SourceGraphic" in2="BackgroundImageFix" result="shape"/>
<feGaussianBlur stdDeviation="178.232" result="effect1_foregroundBlur_9_357"/>
</filter>
<filter id="filter3_f_9_357" x="439.947" y="-69.526" width="1113.43" height="1292.36" filterUnits="userSpaceOnUse" color-interpolation-filters="sRGB">
<feFlood flood-opacity="0" result="BackgroundImageFix"/>
<feBlend mode="normal" in="SourceGraphic" in2="BackgroundImageFix" result="shape"/>
<feGaussianBlur stdDeviation="89.1162" result="effect1_foregroundBlur_9_357"/>
</filter>
<filter id="filter4_f_9_357" x="264.775" y="130.738" width="768.989" height="1093.29" filterUnits="userSpaceOnUse" color-interpolation-filters="sRGB">
<feFlood flood-opacity="0" result="BackgroundImageFix"/>
<feBlend mode="normal" in="SourceGraphic" in2="BackgroundImageFix" result="shape"/>
<feGaussianBlur stdDeviation="89.1162" result="effect1_foregroundBlur_9_357"/>
</filter>
<filter id="filter5_f_9_357" x="838.313" y="4.4543" width="857.407" height="986.866" filterUnits="userSpaceOnUse" color-interpolation-filters="sRGB">
<feFlood flood-opacity="0" result="BackgroundImageFix"/>
<feBlend mode="normal" in="SourceGraphic" in2="BackgroundImageFix" result="shape"/>
<feGaussianBlur stdDeviation="62.3814" result="effect1_foregroundBlur_9_357"/>
</filter>
<filter id="filter6_f_9_357" x="990.644" y="-247.667" width="1151.24" height="1144.72" filterUnits="userSpaceOnUse" color-interpolation-filters="sRGB">
<feFlood flood-opacity="0" result="BackgroundImageFix"/>
<feBlend mode="normal" in="SourceGraphic" in2="BackgroundImageFix" result="shape"/>
<feGaussianBlur stdDeviation="106.94" result="effect1_foregroundBlur_9_357"/>
</filter>
<filter id="filter7_f_9_357" x="-1170.79" y="-578.249" width="2053.04" height="2049.31" filterUnits="userSpaceOnUse" color-interpolation-filters="sRGB">
<feFlood flood-opacity="0" result="BackgroundImageFix"/>
<feBlend mode="normal" in="SourceGraphic" in2="BackgroundImageFix" result="shape"/>
<feGaussianBlur stdDeviation="178.232" result="effect1_foregroundBlur_9_357"/>
</filter>
<filter id="filter8_f_9_357" x="-677.204" y="249.762" width="1612.29" height="1622.63" filterUnits="userSpaceOnUse" color-interpolation-filters="sRGB">
<feFlood flood-opacity="0" result="BackgroundImageFix"/>
<feBlend mode="normal" in="SourceGraphic" in2="BackgroundImageFix" result="shape"/>
<feGaussianBlur stdDeviation="178.232" result="effect1_foregroundBlur_9_357"/>
</filter>
<filter id="filter9_f_9_357" x="-805.888" y="428.351" width="1447.6" height="1456.52" filterUnits="userSpaceOnUse" color-interpolation-filters="sRGB">
<feFlood flood-opacity="0" result="BackgroundImageFix"/>
<feBlend mode="normal" in="SourceGraphic" in2="BackgroundImageFix" result="shape"/>
<feGaussianBlur stdDeviation="178.232" result="effect1_foregroundBlur_9_357"/>
</filter>
<filter id="filter10_f_9_357" x="-188.377" y="-69.526" width="1113.43" height="1292.36" filterUnits="userSpaceOnUse" color-interpolation-filters="sRGB">
<feFlood flood-opacity="0" result="BackgroundImageFix"/>
<feBlend mode="normal" in="SourceGraphic" in2="BackgroundImageFix" result="shape"/>
<feGaussianBlur stdDeviation="89.1162" result="effect1_foregroundBlur_9_357"/>
</filter>
<filter id="filter11_f_9_357" x="331.236" y="130.738" width="768.989" height="1093.29" filterUnits="userSpaceOnUse" color-interpolation-filters="sRGB">
<feFlood flood-opacity="0" result="BackgroundImageFix"/>
<feBlend mode="normal" in="SourceGraphic" in2="BackgroundImageFix" result="shape"/>
<feGaussianBlur stdDeviation="89.1162" result="effect1_foregroundBlur_9_357"/>
</filter>
<filter id="filter12_f_9_357" x="-330.72" y="4.4543" width="857.407" height="986.866" filterUnits="userSpaceOnUse" color-interpolation-filters="sRGB">
<feFlood flood-opacity="0" result="BackgroundImageFix"/>
<feBlend mode="normal" in="SourceGraphic" in2="BackgroundImageFix" result="shape"/>
<feGaussianBlur stdDeviation="62.3814" result="effect1_foregroundBlur_9_357"/>
</filter>
<filter id="filter13_f_9_357" x="-776.888" y="-247.667" width="1151.24" height="1144.72" filterUnits="userSpaceOnUse" color-interpolation-filters="sRGB">
<feFlood flood-opacity="0" result="BackgroundImageFix"/>
<feBlend mode="normal" in="SourceGraphic" in2="BackgroundImageFix" result="shape"/>
<feGaussianBlur stdDeviation="106.94" result="effect1_foregroundBlur_9_357"/>
</filter>
<linearGradient id="paint0_linear_9_357" x1="1335.14" y1="794.318" x2="1509.27" y2="1119.59" gradientUnits="userSpaceOnUse">
<stop stop-color="white"/>
<stop offset="1" stop-color="#391DE8"/>
</linearGradient>
<linearGradient id="paint1_linear_9_357" x1="1063.17" y1="382.818" x2="1975.44" y2="1234.7" gradientUnits="userSpaceOnUse">
<stop stop-color="white"/>
<stop offset="1" stop-color="white" stop-opacity="0"/>
</linearGradient>
<linearGradient id="paint2_linear_9_357" x1="490.852" y1="1021.09" x2="664.985" y2="1346.37" gradientUnits="userSpaceOnUse">
<stop stop-color="white"/>
<stop offset="1" stop-color="#391DE8"/>
</linearGradient>
<linearGradient id="paint3_linear_9_357" x1="301.832" y1="382.818" x2="-610.438" y2="1234.7" gradientUnits="userSpaceOnUse">
<stop stop-color="white"/>
<stop offset="1" stop-color="white" stop-opacity="0"/>
</linearGradient>
<clipPath id="clip0_9_357">
<rect width="1440" height="908" fill="white" transform="translate(0 -203)"/>
</clipPath>
</defs>
</svg>
