<svg width="18" height="20" viewBox="0 0 18 20" fill="none" xmlns="http://www.w3.org/2000/svg">
<path d="M13.9835 3.305C13.243 2.45959 12.8349 1.37389 12.8352 0.25H9.48767V13.6833C9.46185 14.4103 9.15495 15.0988 8.63158 15.604C8.10822 16.1092 7.40924 16.3916 6.68184 16.3917C5.1435 16.3917 3.86517 15.135 3.86517 13.575C3.86517 11.7117 5.6635 10.3142 7.516 10.8883V7.465C3.7785 6.96667 0.506836 9.87 0.506836 13.575C0.506836 17.1825 3.49684 19.75 6.671 19.75C10.0727 19.75 12.8352 16.9875 12.8352 13.575V6.76083C14.1926 7.73567 15.8223 8.2587 17.4935 8.25583V4.90833C17.4935 4.90833 15.4568 5.00583 13.9835 3.305Z" fill="#5212C1"/>
</svg>
