<svg width="25" height="24" viewBox="0 0 25 24" fill="none" xmlns="http://www.w3.org/2000/svg">
<path d="M4.19995 6C4.19995 4.89543 5.09538 4 6.19995 4H8.19995C9.30452 4 10.2 4.89543 10.2 6V8C10.2 9.10457 9.30452 10 8.19995 10H6.19995C5.09538 10 4.19995 9.10457 4.19995 8V6Z" stroke="#6C7787" stroke-width="1.5" stroke-linecap="round" stroke-linejoin="round"/>
<path d="M14.2 6C14.2 4.89543 15.0954 4 16.2 4H18.2C19.3045 4 20.2 4.89543 20.2 6V8C20.2 9.10457 19.3045 10 18.2 10H16.2C15.0954 10 14.2 9.10457 14.2 8V6Z" stroke="#6C7787" stroke-width="1.5" stroke-linecap="round" stroke-linejoin="round"/>
<path d="M4.19995 16C4.19995 14.8954 5.09538 14 6.19995 14H8.19995C9.30452 14 10.2 14.8954 10.2 16V18C10.2 19.1046 9.30452 20 8.19995 20H6.19995C5.09538 20 4.19995 19.1046 4.19995 18V16Z" stroke="#6C7787" stroke-width="1.5" stroke-linecap="round" stroke-linejoin="round"/>
<path d="M14.2 16C14.2 14.8954 15.0954 14 16.2 14H18.2C19.3045 14 20.2 14.8954 20.2 16V18C20.2 19.1046 19.3045 20 18.2 20H16.2C15.0954 20 14.2 19.1046 14.2 18V16Z" stroke="#6C7787" stroke-width="1.5" stroke-linecap="round" stroke-linejoin="round"/>
</svg>
