<svg width="25" height="24" viewBox="0 0 25 24" fill="none" xmlns="http://www.w3.org/2000/svg">
<path d="M4.5 5C4.5 4.44772 4.94772 4 5.5 4H19.5C20.0523 4 20.5 4.44772 20.5 5V7C20.5 7.55228 20.0523 8 19.5 8H5.5C4.94772 8 4.5 7.55228 4.5 7V5Z" stroke="#0066FF" stroke-width="1.5" stroke-linecap="round" stroke-linejoin="round"/>
<path d="M4.5 13C4.5 12.4477 4.94772 12 5.5 12H11.5C12.0523 12 12.5 12.4477 12.5 13V19C12.5 19.5523 12.0523 20 11.5 20H5.5C4.94772 20 4.5 19.5523 4.5 19V13Z" stroke="#0066FF" stroke-width="1.5" stroke-linecap="round" stroke-linejoin="round"/>
<path d="M16.5 13C16.5 12.4477 16.9477 12 17.5 12H19.5C20.0523 12 20.5 12.4477 20.5 13V19C20.5 19.5523 20.0523 20 19.5 20H17.5C16.9477 20 16.5 19.5523 16.5 19V13Z" stroke="#0066FF" stroke-width="1.5" stroke-linecap="round" stroke-linejoin="round"/>
</svg>
