<svg width="1240" height="368" viewBox="0 0 1240 368" fill="none" xmlns="http://www.w3.org/2000/svg">
<g clip-path="url(#clip0_9_411)">
<g filter="url(#filter0_f_9_411)">
<ellipse cx="664.985" cy="673.184" rx="664.985" ry="673.184" transform="matrix(0.621948 -0.783059 -0.783059 -0.621948 1522.83 1031.4)" fill="url(#paint0_linear_9_411)"/>
</g>
<g filter="url(#filter1_f_9_411)">
<ellipse cx="449.681" cy="454.849" rx="449.681" ry="454.849" transform="matrix(-1 0 0 1 1585.74 -977.524)" fill="#865CD0"/>
</g>
<g filter="url(#filter2_f_9_411)">
<ellipse cx="367.337" cy="371.793" rx="367.337" ry="371.793" transform="matrix(-1 0 0 1 1714.42 -990)" fill="#FFC1DF"/>
</g>
<g filter="url(#filter3_f_9_411)">
<path d="M558.633 394.535C418.225 44.2153 640.059 -387.066 1275.14 -506.196C685.873 -265.793 679.625 132.712 734.369 429.696L558.633 394.535Z" fill="white" fill-opacity="0.85"/>
</g>
<g filter="url(#filter4_f_9_411)">
<path d="M416.567 229.432C261.606 13.2904 340.937 -319.134 755.532 -507.389C392.67 -243.841 455.366 29.9226 542.74 223.961L416.567 229.432Z" fill="white" fill-opacity="0.85"/>
</g>
<g filter="url(#filter5_f_9_411)">
<path d="M893.118 379.495C785.229 100.019 965.675 -240.043 1470.96 -328.155C1000.81 -143.323 991.807 172.912 1032.25 409.185L893.118 379.495Z" fill="url(#paint1_linear_9_411)" fill-opacity="0.7"/>
</g>
<g filter="url(#filter6_f_9_411)">
<path d="M1109.52 420.957C1065.3 124.661 1315.68 -167.759 1828.01 -143.342C1328.83 -65.6993 1745.53 332.79 1733.37 572.19L1109.52 420.957Z" fill="white" fill-opacity="0.8"/>
</g>
<g filter="url(#filter7_f_9_411)">
<ellipse cx="-244.271" cy="91.9942" rx="664.985" ry="673.184" transform="rotate(-128.459 -244.271 91.9942)" fill="url(#paint2_linear_9_411)"/>
</g>
<g filter="url(#filter8_f_9_411)">
<ellipse cx="28.9418" cy="-522.674" rx="449.681" ry="454.849" fill="#865CD0"/>
</g>
<g filter="url(#filter9_f_9_411)">
<ellipse cx="-182.086" cy="-618.207" rx="367.337" ry="371.793" fill="#FFC1DF"/>
</g>
<g filter="url(#filter10_f_9_411)">
<path d="M606.367 394.535C746.775 44.2153 524.941 -387.066 -110.144 -506.196C479.127 -265.793 485.375 132.712 430.631 429.696L606.367 394.535Z" fill="white" fill-opacity="0.85"/>
</g>
<g filter="url(#filter11_f_9_411)">
<path d="M748.433 229.432C903.394 13.2904 824.063 -319.134 409.468 -507.389C772.33 -243.841 709.634 29.9226 622.26 223.961L748.433 229.432Z" fill="white" fill-opacity="0.85"/>
</g>
<g filter="url(#filter12_f_9_411)">
<path d="M271.882 379.495C379.771 100.019 199.325 -240.043 -305.957 -328.155C164.192 -143.323 173.193 172.912 132.754 409.185L271.882 379.495Z" fill="url(#paint3_linear_9_411)" fill-opacity="0.7"/>
</g>
<g filter="url(#filter13_f_9_411)">
<path d="M55.4848 420.957C99.7044 124.661 -150.683 -167.759 -663.009 -143.342C-163.835 -65.6993 -580.532 332.79 -568.369 572.19L55.4848 420.957Z" fill="white" fill-opacity="0.8"/>
</g>
</g>
<defs>
<filter id="filter0_f_9_411" x="382.752" y="-932.663" width="2053.04" height="2049.31" filterUnits="userSpaceOnUse" color-interpolation-filters="sRGB">
<feFlood flood-opacity="0" result="BackgroundImageFix"/>
<feBlend mode="normal" in="SourceGraphic" in2="BackgroundImageFix" result="shape"/>
<feGaussianBlur stdDeviation="178.232" result="effect1_foregroundBlur_9_411"/>
</filter>
<filter id="filter1_f_9_411" x="329.913" y="-1333.99" width="1612.29" height="1622.63" filterUnits="userSpaceOnUse" color-interpolation-filters="sRGB">
<feFlood flood-opacity="0" result="BackgroundImageFix"/>
<feBlend mode="normal" in="SourceGraphic" in2="BackgroundImageFix" result="shape"/>
<feGaussianBlur stdDeviation="178.232" result="effect1_foregroundBlur_9_411"/>
</filter>
<filter id="filter2_f_9_411" x="623.284" y="-1346.47" width="1447.6" height="1456.52" filterUnits="userSpaceOnUse" color-interpolation-filters="sRGB">
<feFlood flood-opacity="0" result="BackgroundImageFix"/>
<feBlend mode="normal" in="SourceGraphic" in2="BackgroundImageFix" result="shape"/>
<feGaussianBlur stdDeviation="178.232" result="effect1_foregroundBlur_9_411"/>
</filter>
<filter id="filter3_f_9_411" x="339.947" y="-684.428" width="1113.43" height="1292.36" filterUnits="userSpaceOnUse" color-interpolation-filters="sRGB">
<feFlood flood-opacity="0" result="BackgroundImageFix"/>
<feBlend mode="normal" in="SourceGraphic" in2="BackgroundImageFix" result="shape"/>
<feGaussianBlur stdDeviation="89.1162" result="effect1_foregroundBlur_9_411"/>
</filter>
<filter id="filter4_f_9_411" x="164.775" y="-685.622" width="768.989" height="1093.29" filterUnits="userSpaceOnUse" color-interpolation-filters="sRGB">
<feFlood flood-opacity="0" result="BackgroundImageFix"/>
<feBlend mode="normal" in="SourceGraphic" in2="BackgroundImageFix" result="shape"/>
<feGaussianBlur stdDeviation="89.1162" result="effect1_foregroundBlur_9_411"/>
</filter>
<filter id="filter5_f_9_411" x="738.313" y="-452.918" width="857.407" height="986.866" filterUnits="userSpaceOnUse" color-interpolation-filters="sRGB">
<feFlood flood-opacity="0" result="BackgroundImageFix"/>
<feBlend mode="normal" in="SourceGraphic" in2="BackgroundImageFix" result="shape"/>
<feGaussianBlur stdDeviation="62.3814" result="effect1_foregroundBlur_9_411"/>
</filter>
<filter id="filter6_f_9_411" x="890.644" y="-358.651" width="1151.24" height="1144.72" filterUnits="userSpaceOnUse" color-interpolation-filters="sRGB">
<feFlood flood-opacity="0" result="BackgroundImageFix"/>
<feBlend mode="normal" in="SourceGraphic" in2="BackgroundImageFix" result="shape"/>
<feGaussianBlur stdDeviation="106.94" result="effect1_foregroundBlur_9_411"/>
</filter>
<filter id="filter7_f_9_411" x="-1270.79" y="-932.663" width="2053.04" height="2049.31" filterUnits="userSpaceOnUse" color-interpolation-filters="sRGB">
<feFlood flood-opacity="0" result="BackgroundImageFix"/>
<feBlend mode="normal" in="SourceGraphic" in2="BackgroundImageFix" result="shape"/>
<feGaussianBlur stdDeviation="178.232" result="effect1_foregroundBlur_9_411"/>
</filter>
<filter id="filter8_f_9_411" x="-777.204" y="-1333.99" width="1612.29" height="1622.63" filterUnits="userSpaceOnUse" color-interpolation-filters="sRGB">
<feFlood flood-opacity="0" result="BackgroundImageFix"/>
<feBlend mode="normal" in="SourceGraphic" in2="BackgroundImageFix" result="shape"/>
<feGaussianBlur stdDeviation="178.232" result="effect1_foregroundBlur_9_411"/>
</filter>
<filter id="filter9_f_9_411" x="-905.888" y="-1346.47" width="1447.6" height="1456.52" filterUnits="userSpaceOnUse" color-interpolation-filters="sRGB">
<feFlood flood-opacity="0" result="BackgroundImageFix"/>
<feBlend mode="normal" in="SourceGraphic" in2="BackgroundImageFix" result="shape"/>
<feGaussianBlur stdDeviation="178.232" result="effect1_foregroundBlur_9_411"/>
</filter>
<filter id="filter10_f_9_411" x="-288.377" y="-684.428" width="1113.43" height="1292.36" filterUnits="userSpaceOnUse" color-interpolation-filters="sRGB">
<feFlood flood-opacity="0" result="BackgroundImageFix"/>
<feBlend mode="normal" in="SourceGraphic" in2="BackgroundImageFix" result="shape"/>
<feGaussianBlur stdDeviation="89.1162" result="effect1_foregroundBlur_9_411"/>
</filter>
<filter id="filter11_f_9_411" x="231.236" y="-685.622" width="768.989" height="1093.29" filterUnits="userSpaceOnUse" color-interpolation-filters="sRGB">
<feFlood flood-opacity="0" result="BackgroundImageFix"/>
<feBlend mode="normal" in="SourceGraphic" in2="BackgroundImageFix" result="shape"/>
<feGaussianBlur stdDeviation="89.1162" result="effect1_foregroundBlur_9_411"/>
</filter>
<filter id="filter12_f_9_411" x="-430.72" y="-452.918" width="857.407" height="986.866" filterUnits="userSpaceOnUse" color-interpolation-filters="sRGB">
<feFlood flood-opacity="0" result="BackgroundImageFix"/>
<feBlend mode="normal" in="SourceGraphic" in2="BackgroundImageFix" result="shape"/>
<feGaussianBlur stdDeviation="62.3814" result="effect1_foregroundBlur_9_411"/>
</filter>
<filter id="filter13_f_9_411" x="-876.888" y="-358.651" width="1151.24" height="1144.72" filterUnits="userSpaceOnUse" color-interpolation-filters="sRGB">
<feFlood flood-opacity="0" result="BackgroundImageFix"/>
<feBlend mode="normal" in="SourceGraphic" in2="BackgroundImageFix" result="shape"/>
<feGaussianBlur stdDeviation="106.94" result="effect1_foregroundBlur_9_411"/>
</filter>
<linearGradient id="paint0_linear_9_411" x1="490.852" y1="1021.09" x2="664.985" y2="1346.37" gradientUnits="userSpaceOnUse">
<stop stop-color="white"/>
<stop offset="1" stop-color="#391DE8"/>
</linearGradient>
<linearGradient id="paint1_linear_9_411" x1="963.168" y1="155.585" x2="1875.44" y2="-696.301" gradientUnits="userSpaceOnUse">
<stop stop-color="white"/>
<stop offset="1" stop-color="white" stop-opacity="0"/>
</linearGradient>
<linearGradient id="paint2_linear_9_411" x1="-418.404" y1="439.904" x2="-244.271" y2="765.178" gradientUnits="userSpaceOnUse">
<stop stop-color="white"/>
<stop offset="1" stop-color="#391DE8"/>
</linearGradient>
<linearGradient id="paint3_linear_9_411" x1="201.832" y1="155.585" x2="-710.438" y2="-696.301" gradientUnits="userSpaceOnUse">
<stop stop-color="white"/>
<stop offset="1" stop-color="white" stop-opacity="0"/>
</linearGradient>
<clipPath id="clip0_9_411">
<rect width="1440" height="768" fill="white" transform="translate(-100 -240)"/>
</clipPath>
</defs>
</svg>
