<svg width="25" height="24" viewBox="0 0 25 24" fill="none" xmlns="http://www.w3.org/2000/svg">
<g clip-path="url(#clip0_4_72)">
<path d="M12.4873 0C9.30689 0.00337122 6.25791 1.26914 4.01022 3.51921C1.76253 5.76928 0.499998 8.8196 0.5 12C0.5 15.1826 1.76428 18.2348 4.01472 20.4853C6.26516 22.7357 9.3174 24 12.5 24C15.2229 23.9965 17.8637 23.0671 19.9885 21.3643C22.1134 19.6616 23.596 17.2869 24.1928 14.6302C23.7867 14.951 23.3077 15.1488 22.8046 15.2374C22.6599 15.7 22.4841 16.1524 22.2786 16.5914H19.0016C19.1878 15.7608 19.3192 14.9188 19.395 14.071C19.0838 13.7175 18.8614 13.2951 18.746 12.8386C18.7494 12.1601 18.3826 11.7331 17.8849 11.4H13.1V10.4129C12.6633 10.2749 12.2563 10.0564 11.9 9.76872V11.4H6.94808C6.99896 9.9756 7.1984 8.62704 7.5152 7.4088H10.6626C10.633 7.00192 10.6881 6.59333 10.8243 6.2088H7.88C8.11712 5.53104 8.3912 4.9056 8.69792 4.3488C9.5936 2.7216 10.717 1.70424 11.9 1.41072V4.65456C12.2535 4.34736 12.6602 4.10741 13.1 3.94656V1.36368C14.2765 1.56384 15.4042 2.48064 16.3222 3.99984C16.6767 3.86952 17.0137 3.6336 17.3473 3.38208C17 2.80944 16.6148 2.29104 16.1938 1.8468C16.8793 2.09608 17.5375 2.41461 18.1582 2.79744C18.3186 2.6952 18.4798 2.60184 18.6454 2.53632C18.6342 2.27174 18.6578 2.00684 18.7155 1.7484C16.8423 0.608688 14.6927 0.0039972 12.5 0L12.4873 0ZM9.1352 1.73568C8.57744 2.30016 8.0768 2.98848 7.64648 3.76968C7.24328 4.50168 6.89648 5.32176 6.6116 6.20856H3.3824C4.7108 4.11912 6.7364 2.51976 9.1352 1.73568ZM22.7442 5.77872C22.292 5.89488 21.8199 5.91648 21.356 5.8176C21.4461 5.94592 21.5333 6.07632 21.6176 6.2088H18.8955C18.4232 6.558 17.9598 6.95016 17.4646 7.146C17.4997 7.24416 17.5474 7.33008 17.6029 7.40856H17.7068C17.7212 7.46424 17.7342 7.5216 17.7481 7.57776C18.1095 7.92768 18.6747 8.08104 19.1422 8.33256C19.0845 8.02293 19.0189 7.71483 18.9454 7.40856H22.2786C22.4485 7.7729 22.5979 8.14644 22.7262 8.52744C23.2669 8.6412 23.7591 8.90592 24.1729 9.27096C23.8838 8.03891 23.4016 6.86034 22.7442 5.77896M2.72144 7.4088H6.27536C5.97656 8.64768 5.79344 9.9912 5.74664 11.4002H1.71728C1.79188 10.0176 2.13285 8.66213 2.72144 7.4088ZM1.71728 12.6H5.74016C5.77112 14.0054 5.93696 15.349 6.21872 16.5912H2.72144C2.13285 15.3379 1.79188 13.9826 1.71728 12.6ZM6.94016 12.6H11.9V16.5912H7.4552C7.1564 15.3672 6.97376 14.0196 6.94016 12.6ZM13.1 12.6H18.2821C18.2485 14.0196 18.0656 15.3672 17.7668 16.5912H13.1V12.6ZM3.3824 17.7912H6.53504C6.83312 18.7716 7.20704 19.6728 7.64648 20.4708C7.9916 21.0972 8.3828 21.6634 8.81144 22.1549C6.55376 21.3365 4.6508 19.7861 3.3824 17.7912ZM7.79696 17.7914H11.9V22.783C11.8261 22.7789 11.7531 22.7714 11.6797 22.7662C10.5781 22.4062 9.53792 21.4174 8.69792 19.8922C8.3552 19.2696 8.05184 18.5633 7.79696 17.7917M13.1 17.7917H17.425C17.1706 18.5635 16.867 19.2698 16.5243 19.8924C15.7016 21.3864 14.6869 22.3663 13.6105 22.7443C13.4414 22.7611 13.2712 22.7741 13.1 22.7832V17.7917ZM18.686 17.7917H21.6176C20.404 19.7011 18.6222 21.1819 16.5229 22.0255C16.9078 21.5647 17.2606 21.043 17.5755 20.4713C18.015 19.6733 18.3886 18.7718 18.686 17.7917Z" fill="#5212C1"/>
<path d="M22.0538 4.71186e-08C21.7326 -6.30094e-05 21.4145 0.0631637 21.1177 0.186068C20.8209 0.308973 20.5512 0.489148 20.3241 0.7163C20.0969 0.943452 19.9167 1.21313 19.7938 1.50993C19.6709 1.80673 19.6077 2.12484 19.6078 2.44608C19.6084 2.65196 19.635 2.85694 19.687 3.05616L15.7994 5.41896C15.3443 4.98104 14.7376 4.73597 14.106 4.73496C13.7847 4.7349 13.4666 4.79814 13.1697 4.92107C12.8729 5.04401 12.6032 5.22423 12.376 5.45143C12.1489 5.67863 11.9687 5.94837 11.8458 6.24522C11.723 6.54208 11.6598 6.86024 11.6599 7.18152C11.6598 7.50276 11.7231 7.82087 11.846 8.11767C11.9689 8.41447 12.1491 8.68415 12.3762 8.9113C12.6034 9.13845 12.873 9.31863 13.1698 9.44153C13.4666 9.56444 13.7848 9.62766 14.106 9.6276C14.6964 9.62638 15.2664 9.41184 15.7111 9.02352L19.6582 11.423C19.6247 11.5853 19.6078 11.7506 19.6078 11.9162C19.6077 12.2375 19.6709 12.5556 19.7938 12.8524C19.9167 13.1492 20.0969 13.4189 20.3241 13.646C20.5512 13.8732 20.8209 14.0533 21.1177 14.1763C21.4145 14.2992 21.7326 14.3624 22.0538 14.3623C22.3751 14.3624 22.6932 14.2991 22.99 14.1762C23.2869 14.0533 23.5565 13.8731 23.7837 13.6459C24.0109 13.4188 24.191 13.1491 24.3139 12.8522C24.4368 12.5554 24.5 12.2373 24.4999 11.916C24.5 11.5947 24.4368 11.2766 24.3139 10.9798C24.191 10.683 24.0109 10.4132 23.7837 10.1861C23.5565 9.95889 23.2869 9.77869 22.99 9.65577C22.6932 9.53285 22.3751 9.46962 22.0538 9.46968C21.7254 9.47024 21.4004 9.53689 21.0983 9.66566C20.7961 9.79443 20.523 9.98268 20.2951 10.2192L16.4491 7.88208C16.5173 7.65472 16.5521 7.41865 16.5523 7.18128C16.5515 6.98407 16.5268 6.78769 16.4789 6.5964L20.3789 4.22544C20.8321 4.65266 21.431 4.89108 22.0538 4.89216C22.3751 4.89222 22.6932 4.829 22.99 4.70609C23.2868 4.58319 23.5565 4.40301 23.7836 4.17586C24.0108 3.94871 24.1909 3.67903 24.3138 3.38223C24.4367 3.08543 24.5 2.76732 24.4999 2.44608C24.5 2.12484 24.4367 1.80673 24.3138 1.50993C24.1909 1.21313 24.0108 0.943452 23.7836 0.7163C23.5565 0.489148 23.2868 0.308973 22.99 0.186068C22.6932 0.0631637 22.3751 -6.30094e-05 22.0538 4.71186e-08Z" fill="#5212C1"/>
</g>
<defs>
<clipPath id="clip0_4_72">
<rect width="24" height="24" fill="white" transform="translate(0.5)"/>
</clipPath>
</defs>
</svg>
