<svg width="21" height="21" viewBox="0 0 21 21" fill="none" xmlns="http://www.w3.org/2000/svg">
<path d="M3.93 18.07C2.9749 17.1475 2.21308 16.0441 1.68899 14.824C1.1649 13.604 0.889034 12.2918 0.877496 10.964C0.865958 9.63622 1.11897 8.31942 1.62178 7.09046C2.12459 5.8615 2.86712 4.74498 3.80605 3.80605C4.74498 2.86712 5.8615 2.12459 7.09046 1.62178C8.31942 1.11897 9.63622 0.865957 10.964 0.877495C12.2918 0.889033 13.604 1.1649 14.824 1.68899C16.0441 2.21308 17.1475 2.9749 18.07 3.93C19.8916 5.81602 20.8995 8.34204 20.8767 10.964C20.854 13.586 19.8023 16.0941 17.9482 17.9482C16.0941 19.8023 13.586 20.854 10.964 20.8767C8.34204 20.8995 5.81602 19.8916 3.93 18.07ZM5.34 16.66C6.84113 18.1611 8.87709 19.0044 11 19.0044C13.1229 19.0044 15.1589 18.1611 16.66 16.66C18.1611 15.1589 19.0044 13.1229 19.0044 11C19.0044 8.87709 18.1611 6.84112 16.66 5.34C15.1589 3.83887 13.1229 2.99555 11 2.99555C8.87709 2.99555 6.84113 3.83887 5.34 5.34C3.83887 6.84112 2.99555 8.87709 2.99555 11C2.99555 13.1229 3.83887 15.1589 5.34 16.66ZM15.24 8.17L12.41 11L15.24 13.83L13.83 15.24L11 12.41L8.17 15.24L6.76 13.83L9.59 11L6.76 8.17L8.17 6.76L11 9.59L13.83 6.76L15.24 8.17Z" fill="black"/>
</svg>
