<svg width="20" height="20" viewBox="0 0 20 20" fill="none" xmlns="http://www.w3.org/2000/svg">
<path fill-rule="evenodd" clip-rule="evenodd" d="M1.464 18.536C2.93 20 5.286 20 10 20C14.714 20 17.071 20 18.535 18.535C20 17.072 20 14.714 20 10C20 5.286 20 2.929 18.535 1.464C17.072 0 14.714 0 10 0C5.286 0 2.929 0 1.464 1.464C0 2.93 0 5.286 0 10C0 14.714 0 17.072 1.464 18.536ZM16.75 14C16.75 14.1989 16.671 14.3897 16.5303 14.5303C16.3897 14.671 16.1989 14.75 16 14.75H4C3.80109 14.75 3.61032 14.671 3.46967 14.5303C3.32902 14.3897 3.25 14.1989 3.25 14C3.25 13.8011 3.32902 13.6103 3.46967 13.4697C3.61032 13.329 3.80109 13.25 4 13.25H16C16.1989 13.25 16.3897 13.329 16.5303 13.4697C16.671 13.6103 16.75 13.8011 16.75 14ZM16 10.75C16.1989 10.75 16.3897 10.671 16.5303 10.5303C16.671 10.3897 16.75 10.1989 16.75 10C16.75 9.80109 16.671 9.61032 16.5303 9.46967C16.3897 9.32902 16.1989 9.25 16 9.25H4C3.80109 9.25 3.61032 9.32902 3.46967 9.46967C3.32902 9.61032 3.25 9.80109 3.25 10C3.25 10.1989 3.32902 10.3897 3.46967 10.5303C3.61032 10.671 3.80109 10.75 4 10.75H16ZM16.75 6C16.75 6.19891 16.671 6.38968 16.5303 6.53033C16.3897 6.67098 16.1989 6.75 16 6.75H4C3.80109 6.75 3.61032 6.67098 3.46967 6.53033C3.32902 6.38968 3.25 6.19891 3.25 6C3.25 5.80109 3.32902 5.61032 3.46967 5.46967C3.61032 5.32902 3.80109 5.25 4 5.25H16C16.1989 5.25 16.3897 5.32902 16.5303 5.46967C16.671 5.61032 16.75 5.80109 16.75 6Z" fill="black"/>
</svg>
